<svg width="72" height="72" viewBox="0 0 24 24" fill="none" xmlns="http://www.w3.org/2000/svg"><rect width="24" height="24" fill="none" rx="0" ry="0"></rect><path fill-rule="evenodd" clip-rule="evenodd" d="M16 13C16 14.2632 15.4145 15.3896 14.5 16.1227C13.8152 16.6716 12.9459 17 12 17C9.79086 17 8 15.2091 8 13C8 11.7368 8.58554 10.6104 9.5 9.87731C10.1848 9.32836 11.0541 9 12 9C14.2091 9 16 10.7909 16 13Z" fill="#a23c3c"></path><path fill-rule="evenodd" clip-rule="evenodd" d="M10.1758 5.45273C9.94144 5.21841 9.94144 4.83851 10.1758 4.6042L13.0042 1.77577C13.2385 1.54146 13.6184 1.54146 13.8527 1.77577C14.087 2.01009 14.087 2.38999 13.8527 2.6243L12.0767 4.40033C16.791 4.44149 20.6 8.27593 20.6 13C20.6 17.7496 16.7497 21.6 12 21.6C7.25038 21.6 3.40002 17.7496 3.40002 13C3.40002 12.6686 3.66865 12.4 4.00002 12.4C4.3314 12.4 4.60002 12.6686 4.60002 13C4.60002 17.0869 7.91312 20.4 12 20.4C16.0869 20.4 19.4 17.0869 19.4 13C19.4 8.91979 16.0978 5.61086 12.0201 5.60002L13.8527 7.43263C14.087 7.66694 14.087 8.04684 13.8527 8.28115C13.6184 8.51547 13.2385 8.51547 13.0042 8.28115L10.1758 5.45273Z" fill="#818181"></path></svg>